<svg xmlns="http://www.w3.org/2000/svg" width="4000" height="1000" viewBox="0 0 4000 1000">
  <defs>
    <style>
      .cls-1, .cls-2 {
        fill: #fff;
      }

      .cls-1 {
        fill-rule: evenodd;
      }

      .cls-3 {
        fill: #019cde;
      }
    </style>
  </defs>
  <path class="cls-1" d="M3770,115.032V185s-45.99-64.111-177-69.968c-12.07,0-112.94,5.733-168,45.968-9.3,5.81-140.58,88.759-140,273,0.58,16.621,1.56,309.774,307,309.774,37.14,0,111.55,3.7,186-72.774v72.774h171V115.032H3770ZM3617,265c85.6,0,155,73.873,155,165s-69.4,165-155,165-155-73.873-155-165S3531.4,265,3617,265Z"/>
  <ellipse class="cls-2" cx="3054.5" cy="185" rx="77.5" ry="70"/>
  <path class="cls-1" d="M2993,311h123V743.774H2993V311Z"/>
  <path class="cls-1" d="M2382,683v60.774h144V515h249V400H2526V344s1.69-107.854,139-105c21.26,0.267,67.93-.938,132,32,34.14-86.056,43-110,43-110s-53.47-41.6-179-45.968c-9.48,0-146.93,6.47-197,61.968-8.3,7.622-57.61,46.914-74,125-2.35,10.772-7.61,19.2-8,112C2381.61,449.921,2382,683,2382,683Z"/>
  <ellipse class="cls-2" cx="1106.5" cy="429.5" rx="332.5" ry="314.5"/>
  <circle class="cls-3" cx="1107" cy="430" r="200"/>
  <path class="cls-1" d="M1611,557V743.774h143V386s-9.78-144.357,139-147c15.36,0.389,132.12.168,130,144,0.13,64.131,0,360.774,0,360.774h141V368s8.75-252.968-233-252.968c-69.83,0-163.86,41-182,85.968,0.82-85.968,1-85.968,1-85.968H1611V557Z"/>
  <path class="cls-1" d="M51.219,426.389s-9.612-136.4,95.963-226.146c8.156-8.089,81.942-83.157,225.915-85.055,18.721-.424,167.957-6.442,255.9,107.069-42.384,38.978-91.965,84.054-91.965,84.054S476.775,209.2,322.116,242.27c-17.283,7.389-123.358,47.317-129.951,168.108-0.554,15.036.434,173,137.948,204.132,17.576,3.565,122.3,37.071,208.921-66.043C626.465,631.049,630,633.522,630,633.522S522.614,769.959,338.11,739.591c-26.1-3.822-89.48-4.8-167.936-64.041C148.449,657.605,54.16,591.2,51.219,426.389Z"/>
</svg>
